<svg data-v-0dd9719b="" version="1.0" xmlns="http://www.w3.org/2000/svg" xmlns:xlink="http://www.w3.org/1999/xlink" width="100%" height="100%" viewBox="0 0 340.000000 250.000000" preserveAspectRatio="xMidYMid meet" color-interpolation-filters="sRGB" style="margin: auto;"> <rect data-v-0dd9719b="" x="0" y="0" width="100%" height="100%" fill="#ffffff" fill-opacity="1" class="background"></rect> <rect data-v-0dd9719b="" x="0" y="0" width="100%" height="100%" fill="url(#watermark)" fill-opacity="1" class="watermarklayer"></rect> <g data-v-0dd9719b="" fill="#03001e" class="icon-text-wrapper icon-svg-group iconsvg" transform="translate(48.784996032714844,90.71585464477539)"><g class="iconsvg-imagesvg" transform="translate(0,0)" mask="url(#986ee927-f672-4dc4-8621-488c8c414424)"><g><rect fill="#03001e" fill-opacity="0" stroke-width="2" x="0" y="0" width="60" height="68.56829402084476" class="image-rect"></rect> <svg filter="url(#colors3148086645)" x="0" y="0" width="60" height="68.56829402084476" filtersec="colorsf3339703318" class="image-svg-svg primary" style="overflow: visible;"><svg xmlns="http://www.w3.org/2000/svg" version="1" viewBox="12.99699 8 74.00301 84"><path fill="none" stroke="#000000" stroke-width="1.99998" stroke-linecap="round" stroke-linejoin="round" stroke-miterlimit="10" d="M49.996 10l35.001 35-35 35-35-35z"></path><path stroke="#000000" stroke-width="2" stroke-linecap="round" stroke-linejoin="round" stroke-miterlimit="10" d="M49.999 69.395l24.394-24.392L50 20.608 25.608 45.002l24.391 24.393zm13.786-24.393L49.999 58.787 36.214 45.002 50 31.215l13.785 13.787z" fill="#000000"></path><path stroke="#000000" stroke-width="1.99998" stroke-linecap="round" stroke-linejoin="round" stroke-miterlimit="10" d="M53.183 45.002l-3.179 3.18-3.18-3.18 3.178-3.18z" fill="#000000"></path><path stroke="#000000" stroke-width="2" stroke-linecap="round" stroke-linejoin="round" stroke-miterlimit="10" d="M49.999 80L20 50.004 15.002 55l34.997 35L85 55l-5-5z" fill="#000000"></path></svg></svg> <defs><filter id="colors3148086645"><feColorMatrix type="matrix" values="0 0 0 0 0.01171875  0 0 0 0 0  0 0 0 0 0.1171875  0 0 0 1 0" class="icon-fecolormatrix"></feColorMatrix></filter> <filter id="colorsf3339703318"><feColorMatrix type="matrix" values="0 0 0 0 0.99609375  0 0 0 0 0.99609375  0 0 0 0 0.99609375  0 0 0 1 0" class="icon-fecolormatrix"></feColorMatrix></filter> <filter id="colorsb3962624522"><feColorMatrix type="matrix" values="0 0 0 0 0  0 0 0 0 0  0 0 0 0 0  0 0 0 1 0" class="icon-fecolormatrix"></feColorMatrix></filter></defs></g><rect v-gra="id" width="72" height="80.56829071044922" transform="translate(-6, -6)" style="pointer-events:none;" fill="url(#A77QVrTv1MIyTR3Rv1kJO)"></rect></g> <g transform="translate(67,6.677894592285156)"><g data-gra="path-name" fill-rule="" class="tp-name iconsvg-namesvg" transform="translate(0,0)" fill="url(#286f6b25-e92a-4aba-8187-d8db0fd9d2df)"><g transform="scale(1)"><g><path d="M4.39-32.34L7.21-35.51Q10.02-33.57 14.59-30.06L14.59-30.06 11.78-26.54Q8.61-29.71 4.39-32.34L4.39-32.34ZM21.45-33.4L21.45-33.4 32.17-33.4Q36.39-33.4 37.62-33.75L37.62-33.75Q37.44-31.64 37.44-29.18L37.44-29.18 37.44-22.15Q37.44-19.86 37.62-17.93L37.62-17.93Q37.62-17.58 37.62-17.4L37.62-17.4Q37.62-17.58 31.99-17.58L31.99-17.58 21.8-17.58Q18.98-17.58 16.52-17.4L16.52-17.4Q16-17.4 16-17.4L16-17.4Q16.17-19.34 16.17-22.68L16.17-22.68 16.17-29.53Q16.17-30.94 16-32.87L16-32.87Q16-33.57 16-33.75L16-33.75Q18.28-33.4 21.45-33.4ZM33.93-30.59L19.86-30.59 19.86-26.72 33.93-26.72 33.93-30.59ZM1.76-22.15L4.39-25.31Q7.56-23.91 12.3-20.92L12.3-20.92 9.32-17.4Q7.03-19.51 1.76-22.15L1.76-22.15ZM33.93-24.08L19.86-24.08 19.86-20.39 33.93-20.39 33.93-24.08ZM7.91-14.94L7.91-14.94 11.25-12.83Q9.49-7.03 7.38 0L7.38 0Q7.21 0.88 7.03 2.29L7.03 2.29Q6.86 3.34 6.68 3.34L6.68 3.34 2.64 0.7Q6.5-7.73 7.91-14.94ZM39.55-14.24L39.55-14.24Q39.55-14.06 39.55-13.54L39.55-13.54Q39.2-11.6 39.2-9.84L39.2-9.84 39.2-1.05Q41.13-1.05 42.71-1.41L42.71-1.41Q42.54-1.41 42.89-1.41L42.89-1.41 42.89 1.93Q39.73 1.58 37.97 1.58L37.97 1.58 15.82 1.58Q14.24 1.58 11.07 1.93L11.07 1.93Q13.36 1.58 10.72 1.93L10.72 1.93 10.72-1.41Q11.78-1.05 14.24-1.05L14.24-1.05 14.24-9.67Q14.24-11.95 14.06-14.24L14.06-14.24Q14.06-14.24 14.41-14.24L14.41-14.24Q16.35-13.89 18.46-13.89L18.46-13.89 34.8-13.89Q37.62-13.89 39.55-14.24ZM21.62-1.05L21.62-10.9 17.75-10.9 17.75-1.05 21.62-1.05ZM28.83-10.9L24.79-10.9 24.79-1.05 28.83-1.05 28.83-10.9ZM35.86-10.9L31.82-10.9 31.82-1.05 35.86-1.05 35.86-10.9ZM56.6-35.51L56.6-35.51Q61.52-35.51 61.52-34.98L61.52-34.98Q61.52-34.8 61.35-34.28L61.35-34.28Q60.47-32.7 60.64-31.46L60.64-31.46Q60.64-13.89 59.24-8.09L59.24-8.09Q58.01-2.81 52.03 3.16L52.03 3.16Q50.27 1.23 47.64 1.05L47.64 1.05Q53.44-3.16 55.2-7.73L55.2-7.73Q56.95-12.13 56.95-21.97L56.95-21.97 56.95-30.59Q56.95-34.1 56.6-35.51ZM79.45-35.51L79.45-35.51Q84.38-35.16 84.55-34.98L84.55-34.98Q84.55-34.98 84.38-34.63L84.38-34.63Q83.67-33.22 83.67-31.11L83.67-31.11 83.67-4.22Q83.67 0.53 84.02 3.52L84.02 3.52 79.63 3.52Q79.8 2.11 79.98 0L79.98 0Q79.98-1.93 79.98-4.22L79.98-4.22 79.98-30.76Q79.98-33.4 79.45-35.51ZM67.32-34.45L67.32-34.45Q71.89-34.1 72.07-33.93L72.07-33.93Q72.07-33.75 71.89-33.22L71.89-33.22Q71.37-31.99 71.37-31.11L71.37-31.11 71.37-4.92Q71.37 0 71.72 2.11L71.72 2.11 67.32 2.11Q68.03-0.18 67.85-4.92L67.85-4.92 67.85-29.88Q67.85-32.17 67.32-34.45ZM50.98-26.19L50.98-26.19 55.02-25.66Q54.67-24.08 54.49-22.68L54.49-22.68Q53.61-15.82 52.73-10.72L52.73-10.72Q50.45-11.43 48.52-11.25L48.52-11.25Q50.98-18.63 50.98-26.19ZM61.35-24.26L64.51-24.96Q65.74-19.16 66.62-12.83L66.62-12.83 63.11-12.13Q63.11-18.11 61.35-24.26L61.35-24.26ZM72.77-24.26L76.11-24.96Q78.22-16.7 78.57-12.66L78.57-12.66 74.88-11.78Q74.53-18.46 72.77-24.26L72.77-24.26ZM110.39-36.04L110.39-36.04Q110.74-36.04 111.45-36.04L111.45-36.04Q115.31-35.86 114.96-35.33L114.96-35.33Q114.96-35.16 114.79-34.63L114.79-34.63Q114.26-33.75 114.26-32.34L114.26-32.34 114.26-29 121.46-29Q127.62-29 129.9-29.18L129.9-29.18 129.9-25.31Q128.14-25.49 121.46-25.49L121.46-25.49 114.26-25.49 114.26-19.51 120.23-19.51Q124.8-19.51 127.79-19.69L127.79-19.69 127.79-15.82Q125.33-16.17 120.06-16.17L120.06-16.17 114.26-16.17 114.26-10.02 122.7-10.02Q128.85-10.02 131.48-10.2L131.48-10.2 131.48-6.33Q128.5-6.68 122.87-6.68L122.87-6.68 114.26-6.68Q114.26 0.18 114.61 4.22L114.61 4.22 110.21 4.22Q110.74 2.99 110.74-6.68L110.74-6.68 101.6-6.68Q97.91-6.68 93.69-6.33L93.69-6.33 93.69-10.37Q96.33-10.02 101.6-10.02L101.6-10.02 110.74-10.02 110.74-16.17 105.29-16.17Q103.18-16.17 100.37-16L100.37-16Q98.79-16 97.91-16L97.91-16 97.91-19.69Q99.32-19.51 105.29-19.51L105.29-19.51 110.74-19.51 110.74-25.49 105.12-25.49Q97.56-25.49 95.45-25.31L95.45-25.31 95.45-29.36Q100.9-29 105.29-29L105.29-29 110.74-29 110.74-32.87Q110.74-35.16 110.39-36.04ZM171.39-34.63L171.39-34.63Q171.04-32.52 171.04-30.41L171.04-30.41 171.04-25.49Q171.04-23.38 171.39-21.27L171.39-21.27Q169.8-21.62 166.64-21.62L166.64-21.62 148.18-21.62Q145.55-21.62 143.44-21.27L143.44-21.27Q143.79-23.38 143.79-25.31L143.79-25.31 143.79-30.41Q143.79-32.17 143.44-34.63L143.44-34.63Q145.55-34.28 148.18-34.28L148.18-34.28 166.64-34.28Q169.8-34.28 171.39-34.63ZM167.34-30.76L147.48-30.76 147.48-24.96 167.34-24.96 167.34-30.76ZM140.63-14.24L140.63-18.46Q142.73-18.11 147.13-18.11L147.13-18.11 167.52-18.11Q172.79-18.11 174.02-18.46L174.02-18.46 174.02-14.24Q172.27-14.59 167.52-14.59L167.52-14.59 159.08-14.59 159.08-10.02 165.23-10.02Q170.16-10.02 171.91-10.37L171.91-10.37 171.91-6.5Q169.63-6.86 165.23-6.86L165.23-6.86 159.08-6.86 159.08-1.05 170.16-1.05Q174.73-1.05 177.19-1.41L177.19-1.41 177.19 2.29Q175.08 1.93 170.16 1.93L170.16 1.93 144.67 1.93Q139.39 1.93 137.64 2.29L137.64 2.29 137.64-1.41Q139.04-1.05 144.67-1.05L144.67-1.05 155.21-1.05 155.21-6.86 148.54-6.86Q143.79-6.86 142.21-6.5L142.21-6.5 142.21-10.37Q143.44-10.02 148.71-10.02L148.71-10.02 155.21-10.02 155.21-14.59 147.13-14.59Q142.73-14.59 140.63-14.24L140.63-14.24Z" transform="translate(-1.7599999904632568, 36.040000915527344)"></path></g> <!----> <!----> <!----> <!----> <!----> <!----> <!----></g></g> <g data-gra="path-slogan" fill-rule="" class="tp-slogan iconsvg-slogansvg" fill="url(#9c12453f-e77a-47f8-b9bf-3685d1c2623e)" transform="translate(17.545005798339844,46.26000213623047)"><!----> <!----> <g transform="scale(1, 1)"><g transform="scale(1)"><path d="M5.67-7.13L5.63-7.13L3.66 0L2.44 0L0.19-8.58L1.41-8.58L3.05-1.59L3.09-1.59L5.02-8.58L6.28-8.58L8.20-1.59L8.25-1.59L9.84-8.58L11.11-8.58L8.86 0L7.64 0L5.67-7.13ZM13.50-1.03L18.66-1.03L18.66 0L12.33 0L12.33-8.58L18.56-8.58L18.56-7.59L13.50-7.59L13.50-4.92L18.19-4.92L18.19-3.89L13.50-3.89L13.50-1.03ZM21.56-8.58L25.88-1.64L25.88-8.58L27-8.58L27 0L25.69 0L21.33-6.94L21.28-6.94L21.28 0L20.16 0L20.16-8.58L21.56-8.58ZM29.63-1.03L34.92-1.03L34.92 0L28.17 0L28.17-0.94L33.42-7.59L28.55-7.59L28.55-8.58L34.92-8.58L34.92-7.59L29.63-1.03ZM37.22-5.06L41.72-5.06L41.72-8.58L42.89-8.58L42.89 0L41.72 0L41.72-3.98L37.22-3.98L37.22 0L36.05 0L36.05-8.58L37.22-8.58L37.22-5.06ZM51.47-4.27L51.47-4.27Q51.28-7.64 48.47-7.83L48.47-7.83Q45.61-7.69 45.47-4.27L45.47-4.27Q45.61-0.94 48.47-0.80L48.47-0.80Q51.28-0.98 51.47-4.27ZM52.64-4.27L52.64-4.27Q52.36 0 48.47 0.14L48.47 0.14Q44.53 0 44.25-4.27L44.25-4.27Q44.48-8.72 48.47-8.81L48.47-8.81Q52.36-8.67 52.64-4.27ZM59.67-3.19L59.67-8.58L60.84-8.58L60.84-3.05Q60.70 0.05 57.33 0.14L57.33 0.14Q54.19 0.05 54.05-2.86L54.05-2.86L54.05-8.58L55.22-8.58L55.22-3.19Q55.27-0.84 57.38-0.80L57.38-0.80Q59.67-0.84 59.67-3.19L59.67-3.19ZM71.48-3.89L67.27-3.89L67.27 0L66.09 0L66.09-8.58L72.05-8.58L72.05-7.59L67.27-7.59L67.27-4.92L71.48-4.92L71.48-3.89ZM74.53-1.03L79.69-1.03L79.69 0L73.36 0L73.36-8.58L79.59-8.58L79.59-7.59L74.53-7.59L74.53-4.92L79.22-4.92L79.22-3.89L74.53-3.89L74.53-1.03ZM82.59-8.58L86.91-1.64L86.91-8.58L88.03-8.58L88.03 0L86.72 0L82.36-6.94L82.31-6.94L82.31 0L81.19 0L81.19-8.58L82.59-8.58ZM96.23-3.61L93.61-3.61L93.61-4.59L97.36-4.59L97.36 0L96.61 0L96.33-1.08Q95.34 0.09 93.52 0.14L93.52 0.14Q91.78 0.14 90.84-0.75L90.84-0.75Q89.44-2.06 89.48-4.36L89.48-4.36Q89.81-8.63 93.56-8.81L93.56-8.81Q96.75-8.63 97.22-6L97.22-6L96.09-6Q95.63-7.78 93.52-7.83L93.52-7.83Q90.84-7.64 90.70-4.31L90.70-4.31Q90.70-0.75 93.56-0.75L93.56-0.75Q94.59-0.75 95.34-1.31L95.34-1.31Q96.28-2.06 96.23-3.61L96.23-3.61ZM106.31-6.05L106.31-6.05L105.19-6.05Q104.77-7.78 102.80-7.83L102.80-7.83Q100.08-7.69 99.98-4.36L99.98-4.36Q99.98-0.80 102.84-0.80L102.84-0.80Q104.81-0.84 105.28-3.19L105.28-3.19L106.41-3.19Q105.89 0.05 102.61 0.14L102.61 0.14Q98.86 0 98.77-4.31L98.77-4.31Q98.95-8.63 102.80-8.81L102.80-8.81Q105.84-8.72 106.31-6.05ZM108.94-5.06L113.44-5.06L113.44-8.58L114.61-8.58L114.61 0L113.44 0L113.44-3.98L108.94-3.98L108.94 0L107.77 0L107.77-8.58L108.94-8.58L108.94-5.06ZM117.70-1.03L122.86-1.03L122.86 0L116.53 0L116.53-8.58L122.77-8.58L122.77-7.59L117.70-7.59L117.70-4.92L122.39-4.92L122.39-3.89L117.70-3.89L117.70-1.03ZM125.77-8.58L130.08-1.64L130.08-8.58L131.20-8.58L131.20 0L129.89 0L125.53-6.94L125.48-6.94L125.48 0L124.36 0L124.36-8.58L125.77-8.58ZM139.41-3.61L136.78-3.61L136.78-4.59L140.53-4.59L140.53 0L139.78 0L139.50-1.08Q138.52 0.09 136.69 0.14L136.69 0.14Q134.95 0.14 134.02-0.75L134.02-0.75Q132.61-2.06 132.66-4.36L132.66-4.36Q132.98-8.63 136.73-8.81L136.73-8.81Q139.92-8.63 140.39-6L140.39-6L139.27-6Q138.80-7.78 136.69-7.83L136.69-7.83Q134.02-7.64 133.88-4.31L133.88-4.31Q133.88-0.75 136.73-0.75L136.73-0.75Q137.77-0.75 138.52-1.31L138.52-1.31Q139.45-2.06 139.41-3.61L139.41-3.61Z" transform="translate(-0.1875, 8.8125)"></path></g></g></g></g></g><defs v-gra="od"><linearGradient x1="0" y1="1" x2="0" y2="0" id="9c12453f-e77a-47f8-b9bf-3685d1c2623e"><stop offset="0%" stop-color="#03001e"></stop><stop offset="33.33%" stop-color="#7303c0"></stop><stop offset="66.67%" stop-color="#ec38bc"></stop><stop offset="100%" stop-color="#fdeff9"></stop></linearGradient><filter id="42443b3f1de60f6b6fd3b6a9844b4764" filterUnits="objectBoundingBox"><feColorMatrix type="matrix" values="0 0 0 0 0.99609375  0 0 0 0 0.99609375  0 0 0 0 0.99609375  0 0 0 1 0"></feColorMatrix></filter><linearGradient x1="0" y1="1" x2="0" y2="0" id="286f6b25-e92a-4aba-8187-d8db0fd9d2df"><stop offset="0%" stop-color="#03001e"></stop><stop offset="33.33%" stop-color="#7303c0"></stop><stop offset="66.67%" stop-color="#ec38bc"></stop><stop offset="100%" stop-color="#fdeff9"></stop></linearGradient><filter id="42443b3f1de60f6b6fd3b6a9844b4764" filterUnits="objectBoundingBox"><feColorMatrix type="matrix" values="0 0 0 0 0.99609375  0 0 0 0 0.99609375  0 0 0 0 0.99609375  0 0 0 1 0"></feColorMatrix></filter></defs><defs v-gra="id"><filter id="81e2675e-0fc9-413b-8e08-b67682730aee" filterUnits="userSpaceOnUse"><feColorMatrix type="matrix" values="0 0 0 0 0.99609375  0 0 0 0 0.99609375  0 0 0 0 0.99609375  0 0 0 1 0"></feColorMatrix></filter><linearGradient x1="0" y1="1" x2="0" y2="0" id="A77QVrTv1MIyTR3Rv1kJO"><stop offset="0%" stop-color="#03001e"></stop><stop offset="33.33%" stop-color="#7303c0"></stop><stop offset="66.67%" stop-color="#ec38bc"></stop><stop offset="100%" stop-color="#fdeff9"></stop></linearGradient><filter id="42443b3f1de60f6b6fd3b6a9844b4764" filterUnits="objectBoundingBox"><feColorMatrix type="matrix" values="0 0 0 0 0.99609375  0 0 0 0 0.99609375  0 0 0 0 0.99609375  0 0 0 1 0"></feColorMatrix></filter></defs><mask v-gra="im" id="986ee927-f672-4dc4-8621-488c8c414424"><g class="iconsvg-imagesvg" filter="url(#81e2675e-0fc9-413b-8e08-b67682730aee)"><g><rect fill="#03001e" fill-opacity="0" stroke-width="2" x="0" y="0" width="60" height="68.56829402084476" class="image-rect"></rect> <svg x="0" y="0" width="60" height="68.56829402084476" filtersec="colorsf3339703318" class="image-svg-svg primary" style="overflow: visible;"><svg xmlns="http://www.w3.org/2000/svg" version="1" viewBox="12.99699 8 74.00301 84"><path fill="none" stroke="#000000" stroke-width="1.99998" stroke-linecap="round" stroke-linejoin="round" stroke-miterlimit="10" d="M49.996 10l35.001 35-35 35-35-35z"></path><path stroke="#000000" stroke-width="2" stroke-linecap="round" stroke-linejoin="round" stroke-miterlimit="10" d="M49.999 69.395l24.394-24.392L50 20.608 25.608 45.002l24.391 24.393zm13.786-24.393L49.999 58.787 36.214 45.002 50 31.215l13.785 13.787z" fill="#000000"></path><path stroke="#000000" stroke-width="1.99998" stroke-linecap="round" stroke-linejoin="round" stroke-miterlimit="10" d="M53.183 45.002l-3.179 3.18-3.18-3.18 3.178-3.18z" fill="#000000"></path><path stroke="#000000" stroke-width="2" stroke-linecap="round" stroke-linejoin="round" stroke-miterlimit="10" d="M49.999 80L20 50.004 15.002 55l34.997 35L85 55l-5-5z" fill="#000000"></path></svg></svg> <defs><filter id="colors3148086645"><feColorMatrix type="matrix" values="0 0 0 0 0.01171875  0 0 0 0 0  0 0 0 0 0.1171875  0 0 0 1 0" class="icon-fecolormatrix"></feColorMatrix></filter> <filter id="colorsf3339703318"><feColorMatrix type="matrix" values="0 0 0 0 0.99609375  0 0 0 0 0.99609375  0 0 0 0 0.99609375  0 0 0 1 0" class="icon-fecolormatrix"></feColorMatrix></filter> <filter id="colorsb3962624522"><feColorMatrix type="matrix" values="0 0 0 0 0  0 0 0 0 0  0 0 0 0 0  0 0 0 1 0" class="icon-fecolormatrix"></feColorMatrix></filter></defs></g></g></mask></svg>